<?xml version="1.0" standalone="no"?>
<!DOCTYPE svg PUBLIC "-//W3C//DTD SVG 20010904//EN"
 "http://www.w3.org/TR/2001/REC-SVG-20010904/DTD/svg10.dtd">
<svg version="1.0" xmlns="http://www.w3.org/2000/svg"
 width="488.000000pt" height="488.000000pt" viewBox="0 0 488.000000 488.000000"
 preserveAspectRatio="xMidYMid meet">
<metadata>
Created by potrace 1.14, written by Peter Selinger 2001-2017
</metadata>
<g transform="translate(0.000000,488.000000) scale(0.100000,-0.100000)"
fill="#000000" stroke="none">
<path d="M1380 2985 c-58 -24 -105 -48 -104 -54 1 -6 2 -16 3 -21 0 -6 17 -8
43 -4 53 9 68 -10 68 -87 0 -54 2 -58 34 -77 20 -12 47 -43 65 -74 16 -29 34
-60 40 -68 7 -10 10 56 10 208 l1 222 -27 -1 c-16 0 -75 -20 -133 -44z"/>
<path d="M3362 3014 c-33 -23 -45 -60 -31 -101 13 -40 34 -53 88 -53 49 0 81
35 81 87 0 68 -81 107 -138 67z"/>
<path d="M586 2968 c-8 -18 -53 -123 -100 -233 -47 -109 -86 -206 -86 -215 0
-17 46 -78 53 -70 3 3 31 66 64 142 l59 136 24 -59 c13 -33 27 -62 31 -65 5
-3 17 13 28 34 11 21 33 53 50 71 17 18 31 37 31 42 0 5 -22 62 -49 127 -39
91 -54 118 -71 120 -15 3 -24 -5 -34 -30z"/>
<path d="M3660 2961 c0 -15 11 -22 52 -30 99 -22 152 -72 294 -280 48 -71 91
-128 95 -125 8 5 79 148 79 159 0 3 -17 32 -39 63 -63 93 -75 121 -62 148 6
13 23 26 38 30 57 12 63 16 63 35 0 18 -10 19 -260 19 -250 0 -260 -1 -260
-19z"/>
<path d="M4400 2961 c0 -15 10 -21 40 -26 100 -17 94 -63 -26 -208 l-23 -27
20 -35 c12 -19 23 -35 25 -35 2 0 38 44 81 97 121 152 165 188 256 207 18 4
27 13 27 26 0 19 -7 20 -200 20 -190 0 -200 -1 -200 -19z"/>
<path d="M1390 2477 l0 -244 31 -46 c33 -50 77 -87 103 -87 14 0 16 23 16 199
l0 199 -36 78 c-40 90 -78 144 -100 144 -12 0 -14 -37 -14 -243z"/>
<path d="M718 2678 c-14 -18 -33 -48 -42 -65 -9 -18 -21 -33 -26 -33 -11 0 3
-42 59 -172 22 -53 41 -99 41 -102 0 -4 -20 -6 -45 -6 -25 0 -45 -2 -45 -5 0
-4 7 -19 15 -35 13 -25 22 -29 62 -32 l46 -3 28 -65 c15 -35 32 -66 38 -68 17
-6 87 38 110 69 l20 27 -108 258 c-59 142 -112 259 -118 261 -6 2 -21 -11 -35
-29z"/>
<path d="M4330 2619 c-24 -30 -47 -58 -50 -62 -4 -5 -22 15 -40 42 -17 28 -35
49 -40 46 -4 -2 -13 -18 -20 -35 -7 -16 -18 -30 -26 -30 -7 0 -11 -6 -8 -14 3
-8 -2 -29 -11 -46 -16 -31 -16 -33 9 -70 22 -33 23 -40 11 -56 -19 -25 -18
-34 5 -64 18 -24 20 -24 36 -8 17 16 22 11 101 -107 82 -123 83 -124 110 -114
30 11 79 54 94 81 8 14 -10 47 -81 153 -49 74 -90 139 -90 144 0 5 18 32 41
61 42 53 45 74 16 114 -12 17 -16 15 -57 -35z"/>
<path d="M2747 2630 c-47 -14 -57 -27 -45 -61 5 -16 12 -29 14 -29 2 0 18 9
36 20 41 25 107 26 155 3 34 -16 36 -16 49 2 8 10 14 26 14 35 0 31 -152 51
-223 30z"/>
<path d="M3010 2610 c-7 -16 -18 -30 -24 -30 -17 0 -13 -70 7 -114 10 -22 20
-50 23 -63 4 -14 14 -23 25 -23 18 0 19 9 19 130 0 121 -1 130 -19 130 -11 0
-23 -12 -31 -30z"/>
<path d="M3365 2611 c-38 -16 -71 -35 -73 -42 -5 -25 56 -109 92 -126 32 -15
36 -15 68 4 33 19 33 19 36 106 l3 87 -28 -1 c-15 0 -59 -13 -98 -28z"/>
<path d="M1690 2602 c0 -13 13 -21 48 -29 51 -12 56 -10 67 25 6 21 4 22 -54
22 -52 0 -61 -3 -61 -18z"/>
<path d="M1834 2596 c-17 -19 -20 -39 -23 -121 -1 -53 1 -95 6 -93 60 30 91
39 115 34 l28 -5 0 104 0 105 -52 0 c-43 0 -57 -5 -74 -24z"/>
<path d="M2140 2601 c0 -15 10 -21 40 -26 47 -8 65 -30 75 -92 4 -25 12 -43
20 -43 28 0 114 125 115 168 0 9 -32 12 -125 12 -116 0 -125 -1 -125 -19z"/>
<path d="M2647 2563 c-22 -25 -47 -87 -47 -117 0 -19 6 -25 36 -31 49 -9 109
-72 162 -170 38 -70 51 -85 104 -118 55 -34 64 -37 92 -27 38 13 86 58 86 81
0 28 -75 82 -200 144 -122 61 -170 101 -170 144 -1 14 -11 45 -23 69 -22 41
-24 42 -40 25z"/>
<path d="M3224 2554 c-15 -6 -6 -44 10 -44 22 0 39 18 33 34 -6 16 -21 19 -43
10z"/>
<path d="M2360 2483 c-19 -27 -50 -55 -67 -63 l-33 -15 0 -158 0 -158 23 7
c35 11 64 33 92 69 25 34 25 35 23 200 l-3 165 -35 -47z"/>
<path d="M312 2329 c-35 -83 -61 -154 -58 -156 2 -3 17 15 32 39 69 110 99
150 125 169 16 11 29 24 29 29 0 8 -55 70 -62 70 -1 0 -31 -68 -66 -151z"/>
<path d="M3450 2414 c-14 -7 -33 -14 -44 -14 -15 0 -10 -10 25 -47 24 -27 47
-49 51 -51 4 -2 8 26 8 62 0 36 -3 66 -7 65 -5 -1 -19 -7 -33 -15z"/>
<path d="M1880 2383 c-8 -3 -27 -17 -42 -31 -27 -25 -28 -29 -28 -135 l0 -109
31 6 c17 3 51 6 75 6 l44 0 0 129 c0 108 -3 130 -16 135 -18 7 -43 7 -64 -1z"/>
<path d="M2600 2381 c0 -21 22 -67 43 -90 26 -29 127 -95 134 -88 6 7 -33 84
-64 125 -34 45 -113 82 -113 53z"/>
<path d="M3340 2215 l0 -164 43 18 c23 10 57 22 75 26 31 6 32 8 32 64 0 48
-6 67 -35 117 -36 59 -79 104 -102 104 -10 0 -13 -40 -13 -165z"/>
<path d="M4007 2206 c-59 -74 -107 -139 -107 -143 0 -10 59 -47 65 -41 16 17
195 252 195 257 0 3 -10 19 -23 34 l-22 29 -108 -136z"/>
<path d="M356 2273 c-12 -18 -26 -33 -33 -33 -7 0 -10 -7 -7 -15 7 -16 -58
-110 -86 -125 -10 -6 -33 -39 -50 -74 -37 -76 -62 -101 -110 -113 -25 -7 -36
-16 -38 -31 -3 -22 -3 -22 177 -22 171 0 181 1 181 19 0 20 -19 31 -54 31 -13
0 -36 10 -51 21 -34 28 -30 54 32 195 l45 104 144 0 c79 0 144 2 144 5 0 4 -7
19 -15 35 l-15 29 -122 3 -121 3 -21 -32z"/>
<path d="M1390 2057 c0 -121 -10 -144 -71 -153 -29 -5 -39 -11 -39 -25 0 -15
7 -19 31 -19 37 0 52 8 152 73 73 49 77 53 77 89 0 33 -4 39 -34 52 -18 7 -49
30 -69 50 -20 20 -39 36 -42 36 -3 0 -5 -46 -5 -103z"/>
<path d="M4491 2126 c-19 -19 -47 -40 -62 -47 -34 -14 -34 -13 -10 -47 46 -66
35 -106 -34 -123 -33 -8 -45 -16 -45 -30 0 -18 11 -19 198 -19 184 0 199 1
232 22 l35 21 -25 7 c-69 19 -130 77 -215 208 -15 23 -31 42 -34 42 -4 0 -22
-15 -40 -34z"/>
<path d="M950 2115 c-18 -19 -48 -39 -65 -45 l-32 -11 14 -41 c24 -70 8 -96
-69 -112 -19 -5 -28 -13 -28 -26 0 -19 7 -20 220 -20 213 0 220 1 220 20 0 13
-9 22 -27 26 -76 18 -109 56 -160 179 -15 36 -29 65 -33 65 -3 0 -21 -16 -40
-35z"/>
<path d="M2361 2109 c-19 -16 -51 -34 -70 -40 -52 -16 -59 -27 -33 -45 13 -8
53 -40 90 -70 37 -29 74 -54 83 -54 35 0 89 30 89 50 0 17 -5 19 -43 14 -57
-8 -70 8 -77 101 l-5 73 -34 -29z"/>
<path d="M3060 2109 c-19 -16 -46 -32 -59 -36 -20 -5 -22 -10 -17 -41 11 -72
-44 -132 -121 -132 -88 1 -178 77 -210 177 -12 38 -22 53 -35 53 -17 0 -18
-11 -18 -140 0 -149 3 -157 49 -128 14 8 29 8 64 0 77 -20 231 -15 276 7 94
48 149 158 125 249 -8 28 -12 28 -54 -9z"/>
<path d="M1828 2083 c-10 -2 -18 -6 -18 -7 0 -1 5 -29 11 -62 22 -119 73 -164
188 -164 87 0 126 18 195 88 44 46 53 72 23 72 -7 0 -39 -14 -71 -30 -67 -34
-94 -37 -137 -14 -31 15 -59 66 -59 104 0 18 -6 20 -57 19 -32 -1 -66 -3 -75
-6z"/>
<path d="M3400 2047 c-49 -20 -55 -25 -62 -61 -11 -51 -32 -74 -74 -82 -24 -4
-34 -12 -34 -25 0 -18 10 -19 185 -19 175 0 185 1 185 19 0 15 -10 21 -40 26
-53 9 -70 35 -70 107 0 68 -5 70 -90 35z"/>
<path d="M3836 2001 c-30 -32 -124 -84 -168 -95 -19 -4 -28 -13 -28 -26 0 -19
7 -20 200 -20 190 0 200 1 200 19 0 19 -18 31 -49 31 -25 0 -51 32 -51 62 0
26 -35 58 -63 58 -7 0 -26 -13 -41 -29z"/>
<path d="M2260 1920 l0 -70 32 0 c34 0 98 20 98 30 0 4 -29 30 -65 58 l-65 53
0 -71z"/>
<path d="M1512 1943 c-12 -2 -20 -8 -17 -12 2 -5 -13 -20 -35 -35 -22 -14 -40
-28 -40 -31 0 -3 54 -5 120 -5 111 0 120 1 120 19 0 14 -10 20 -38 25 -21 3
-47 15 -57 26 -10 11 -21 19 -24 19 -3 -1 -16 -4 -29 -6z"/>
</g>
</svg>
